:SAMPLES-PER-SECOND 30
:FULLY-SPECIFIED
:DEGREES
81
root  -27.7066 38.6822 -2.77478 12.6666 -81.533 5.08778
RightUpLeg  -52.8075 -28.9606 20.0482
RightLeg  21.3234 5.22443 2.09055
RightFoot  9.69602 2.24862 -11.6996
RightToes  5.82063e-011 0 -3.6325e-017
Spine  64.0836 -1.98193 5.56317
Spine1  7.59692 0.516612 1.67686
HEad  -45.7572 -5.17856 2.31982
LeftShoulder1  4.01574 -22.7479 -7.7086
LeftArm  -104.988 -73.1711 48.9526
LeftForeArm  -19.2132 -7.2692 0.428546
LeftHand  -0.244104 0.0205437 5.32207
RightShoulder  -0.0338196 5.28442 -9.98195
RightArm  -84.3395 72.1919 -19.3391
RightForeArm  -68.642 6.064 2.20806
RightHand  -5.89228 16.3212 -31.0558
LeftUpLeg  -48.0283 18.1271 -10.3284
LeftLeg  15.28 -7.4509 -2.80531
LeftFoot  17.1841 -0.524928 1.65868
LeftToes  1.45487e-011 -6.19069e-011 1.65092e-011
82
root  -27.3488 38.6129 -3.0022 11.0029 -80.7716 6.1255
RightUpLeg  -52.6602 -29.8154 20.1831
RightLeg  20.9281 5.29931 2.52297
RightFoot  9.96979 2.42763 -12.4777
RightToes  5.82063e-011 0 -3.6325e-017
Spine  64.2089 -2.79945 6.0212
Spine1  7.4164 0.178918 0.246576
HEad  -45.4346 -4.76044 3.86332
LeftShoulder1  3.36404 -22.2479 -5.13576
LeftArm  -102.355 -73.3856 46.5641
LeftForeArm  -20.0401 -6.99856 0.19559
LeftHand  -0.244104 0.0205437 5.32207
RightShoulder  0.129578 5.449 -8.01186
RightArm  -82.2711 72.24 -18.3288
RightForeArm  -69.5356 6.69214 2.82082
RightHand  -6.39136 17.1465 -32.3677
LeftUpLeg  -48.2673 18.4304 -10.1156
LeftLeg  16.2341 -9.95397 -3.32482
LeftFoot  16.1898 0.932995 -4.2974
LeftToes  1.45487e-011 -6.19069e-011 1.65092e-011
83
root  -26.9244 38.5095 -3.13756 9.84085 -80.3616 6.28987
RightUpLeg  -51.7991 -30.0961 19.4337
RightLeg  20.5155 4.88212 3.02043
RightFoot  10.195 2.49298 -12.6761
RightToes  5.82063e-011 0 -3.6325e-017
Spine  64.7179 -4.07461 6.5041
Spine1  7.02128 -0.197976 -2.33116
HEad  -44.5949 -4.00098 5.81086
LeftShoulder1  2.61123 -21.0967 -2.43142
LeftArm  -100.737 -74.1192 44.6217
LeftForeArm  -20.3596 -6.49858 0.0294401
LeftHand  -0.244104 0.0205437 5.32207
RightShoulder  0.300416 6.02582 -6.05082
RightArm  -79.4168 72.1316 -16.6507
RightForeArm  -70.7258 7.03185 3.37434
RightHand  -6.55463 17.2924 -32.9373
LeftUpLeg  -48.2492 17.1133 -7.98346
LeftLeg  20.1176 -11.0019 -4.07897
LeftFoot  11.7287 2.02011 -10.2583
LeftToes  1.45487e-011 -6.19069e-011 1.65092e-011
84
root  -26.4255 38.3957 -3.16111 8.23062 -80.378 6.73587
RightUpLeg  -50.6771 -30.0467 18.239
RightLeg  19.9229 4.24668 3.4704
RightFoot  10.8807 2.53823 -12.4816
RightToes  5.82063e-011 0 -3.6325e-017
Spine  63.9997 -2.29487 5.81472
Spine1  9.14767 0.0511483 1.71833
HEad  -44.8082 -4.56122 3.85475
LeftShoulder1  3.41005 -21.6012 -5.75365
LeftArm  -104.08 -74.0586 49.0444
LeftForeArm  -19.9321 -6.1727 -0.214729
LeftHand  -0.244104 0.0205437 5.32207
RightShoulder  0.0171405 5.152 -9.34736
RightArm  -77.4928 71.8885 -14.5455
RightForeArm  -72.1292 7.00333 3.38187
RightHand  -6.58034 17.2176 -33.1597
LeftUpLeg  -47.9682 15.2255 -5.42159
LeftLeg  26.1506 -9.25234 -4.56273
LeftFoot  5.17554 1.67253 -11.5199
LeftToes  1.45487e-011 -6.19069e-011 1.65092e-011
85
root  -25.865 38.2896 -3.08269 6.26515 -80.5712 7.62451
RightUpLeg  -49.0297 -29.0581 15.9468
RightLeg  18.7479 2.4209 3.88651
RightFoot  12.0355 2.65861 -12.3887
RightToes  5.82063e-011 0 -3.6325e-017
Spine  64.306 -3.63142 6.02582
Spine1  9.24737 -0.199596 -1.34511
HEad  -44.3979 -3.93029 5.22421
LeftShoulder1  2.44674 -20.2405 -2.11426
LeftArm  -101.98 -74.8309 45.3739
LeftForeArm  -20.1937 -5.58407 0.136943
LeftHand  -0.244104 0.0205437 5.32207
RightShoulder  0.174301 5.92853 -7.53909
RightArm  -76.2477 72.2211 -13.7481
RightForeArm  -72.6239 6.65038 3.56876
RightHand  -6.66639 17.3826 -33.3368
LeftUpLeg  -47.6473 14.066 -4.22261
LeftLeg  32.6283 -4.69037 -2.83339
LeftFoot  -0.814552 0.735341 -7.85709
LeftToes  1.45487e-011 -6.19069e-011 1.65092e-011
86
root  -25.2607 38.1726 -2.91471 4.75911 -80.7948 8.19968
RightUpLeg  -46.6352 -26.4279 11.989
RightLeg  16.99 -1.23348 4.49856
RightFoot  13.2473 2.75772 -12.1779
RightToes  5.82063e-011 0 -3.6325e-017
Spine  64.8461 -4.85302 6.42451
Spine1  8.31037 -0.37085 -3.90292
HEad  -43.9963 -3.61087 6.56884
LeftShoulder1  2.08599 -19.9093 -0.527642
LeftArm  -97.7731 -75.5201 40.9314
LeftForeArm  -20.2819 -4.89406 -0.0466758
LeftHand  -0.244104 0.0205437 5.32207
RightShoulder  0.42192 7.24892 -5.0916
RightArm  -73.762 72.1712 -12.3097
RightForeArm  -71.9959 6.16983 3.88329
RightHand  -6.66091 17.4674 -33.1939
LeftUpLeg  -47.1999 13.0826 -3.69004
LeftLeg  38.9914 0.925288 1.18663
LeftFoot  -4.22827 0.252844 -3.82976
LeftToes  1.45487e-011 -6.19069e-011 1.65092e-011
87
root  -24.6136 38.0165 -2.65436 4.07336 -81.293 8.04578
RightUpLeg  -44.1017 -22.3148 7.08241
RightLeg  14.9415 -6.30877 5.36545
RightFoot  14.5621 2.71331 -11.3161
RightToes  5.82063e-011 0 -3.6325e-017
Spine  64.6698 -5.13644 6.72915
Spine1  8.61541 -0.313766 -4.49318
HEad  -44.527 -3.50316 7.37647
LeftShoulder1  1.99633 -19.7761 -0.147293
LeftArm  -96.9029 -76.0024 40.1163
LeftForeArm  -20.524 -4.16357 -0.161509
LeftHand  -0.244104 0.0205437 5.32207
RightShoulder  0.50136 7.62774 -4.44459
RightArm  -72.9796 72.1845 -11.5592
RightForeArm  -71.1535 5.59659 3.81586
RightHand  -6.47498 17.1503 -32.7543
LeftUpLeg  -46.1617 12.2546 -3.41628
LeftLeg  44.6354 4.01504 4.59221
LeftFoot  -5.25227 0.174867 -2.73982
LeftToes  1.45487e-011 -6.19069e-011 1.65092e-011
88
root  -23.916 37.8422 -2.31124 2.37296 -82.1694 9.04605
RightUpLeg  -42.0381 -17.6903 2.23815
RightLeg  12.3547 -11.9449 6.28898
RightFoot  16.3861 2.55946 -9.88345
RightToes  5.82063e-011 0 -3.6325e-017
Spine  64.0478 -4.76665 6.7515
Spine1  9.60421 -0.0172741 -4.15336
HEad  -45.0621 -3.6167 7.50329
LeftShoulder1  2.11778 -20.1195 -0.588261
LeftArm  -96.391 -76.1878 39.8887
LeftForeArm  -20.674 -3.76803 -0.287573
LeftHand  -0.244104 0.0205437 5.32207
RightShoulder  0.468407 7.48633 -4.7243
RightArm  -72.8262 72.2703 -11.0558
RightForeArm  -70.9022 4.98008 3.61488
RightHand  -6.30659 16.7293 -32.5292
LeftUpLeg  -44.0047 12.1089 -4.05801
LeftLeg  47.344 4.29093 5.38999
LeftFoot  -6.21249 0.16591 -2.86676
LeftToes  1.45487e-011 -6.19069e-011 1.65092e-011
89
root  -23.1696 37.7052 -1.92502 -3.37277 -82.9335 14.371
RightUpLeg  -40.5148 -14.1055 -1.81986
RightLeg  8.93772 -16.417 7.11798
RightFoot  18.124 2.16371 -7.75131
RightToes  5.82063e-011 0 -3.6325e-017
Spine  63.6909 -4.87528 6.40658
Spine1  10.1835 0.112078 -5.06059
HEad  -44.904 -3.65055 7.56442
LeftShoulder1  2.08228 -20.373 -0.30914
LeftArm  -93.5662 -76.3211 37.0335
LeftForeArm  -20.7036 -3.6691 -0.395179
LeftHand  -0.244104 0.0205437 5.32207
RightShoulder  0.497379 7.49875 -4.42913
RightArm  -72.2146 72.5077 -10.1634
RightForeArm  -71.0879 4.46911 3.52507
RightHand  -6.26166 16.522 -32.5995
LeftUpLeg  -41.4215 12.664 -6.16842
LeftLeg  46.088 4.1809 5.05382
LeftFoot  -8.57044 0.0879641 -1.23618
LeftToes  1.45487e-011 -6.19069e-011 1.65092e-011
90
root  -22.3619 37.5959 -1.54201 -12.1982 -83.1014 23.0216
RightUpLeg  -39.6062 -12.8096 -4.52741
RightLeg  5.92099 -18.3451 7.58979
RightFoot  17.6246 0.957018 -3.17958
RightToes  5.82063e-011 0 -3.6325e-017
Spine  63.7271 -4.98515 5.68353
Spine1  10.3924 0.00550872 -5.53116
HEad  -44.4966 -3.88331 7.17064
LeftShoulder1  2.20634 -20.815 -0.703139
LeftArm  -91.175 -76.4375 34.7567
LeftForeArm  -20.3973 -3.42223 -0.51413
LeftHand  -0.244104 0.0205437 5.32207
RightShoulder  0.500756 7.6657 -4.46968
RightArm  -70.7102 72.4298 -8.68967
RightForeArm  -71.2229 4.10571 3.53848
RightHand  -6.17989 16.3403 -32.4529
LeftUpLeg  -39.9532 13.3836 -9.07006
LeftLeg  42.8485 4.87278 5.21921
LeftFoot  -10.9413 0.0564957 2.07409
LeftToes  1.45487e-011 -6.19069e-011 1.65092e-011
91
root  -21.4839 37.4874 -1.19161 -19.3064 -82.9505 29.857
RightUpLeg  -38.9194 -13.3594 -6.15371
RightLeg  4.21376 -19.5164 7.72291
RightFoot  13.5315 -0.989611 5.07514
RightToes  5.82063e-011 0 -3.6325e-017
Spine  63.8658 -5.12759 5.15905
Spine1  10.2161 -0.166424 -5.82198
HEad  -44.3442 -4.3007 7.00568
LeftShoulder1  2.2967 -21.1597 -0.97354
LeftArm  -91.1411 -76.7549 34.5808
LeftForeArm  -19.9734 -2.85908 -0.470143
LeftHand  -0.244104 0.0205437 5.32207
RightShoulder  0.496871 7.97182 -4.65045
RightArm  -69.4117 71.9083 -7.67393
RightForeArm  -71.0922 3.65631 3.48157
RightHand  -5.94337 15.9172 -31.8711
LeftUpLeg  -40.067 13.9798 -11.5376
LeftLeg  40.4965 5.58147 5.47981
LeftFoot  -11.169 0.0554747 5.14441
LeftToes  1.45487e-011 -6.19069e-011 1.65092e-011
